<svg width="420" height="250" viewBox="0 0 420 250" fill="none" xmlns="http://www.w3.org/2000/svg">
<g clip-path="url(#clip0_3_7)">
<rect width="420" height="250" fill="#000305"/>
<path d="M120 48V137" stroke="white" stroke-width="10" stroke-linecap="round"/>
<path d="M100 120L159 120" stroke="white" stroke-width="10" stroke-linecap="round"/>
<path d="M96.0158 95.8215L95.8215 103.984L103.984 104.179L104.179 96.0158L96.0158 95.8215ZM144.984 147.179L145.179 139.016L137.016 138.822L136.821 146.984L144.984 147.179ZM99.2763 100.69L140.276 143.69L141.724 142.31L100.724 99.3099L99.2763 100.69Z" fill="white"/>
<g filter="url(#filter0_d_3_7)">
<path d="M92.0158 148.179L100.179 147.984L99.9842 139.822L91.8215 140.016L92.0158 148.179ZM140.984 96.8215L132.821 97.0158L133.016 105.179L141.179 104.984L140.984 96.8215ZM96.7237 144.69L137.724 101.69L136.276 100.31L95.2763 143.31L96.7237 144.69Z" fill="white"/>
</g>
<path d="M165.296 136.797C166.129 135.443 167.093 134.232 168.187 133.164C169.28 132.122 170.4 131.133 171.546 130.195C172.718 129.258 173.877 128.346 175.023 127.461C176.168 126.576 177.223 125.625 178.187 124.609C179.176 123.594 180.023 122.474 180.726 121.25C181.429 120 181.911 118.555 182.171 116.914C182.171 116.862 182.158 116.784 182.132 116.68C182.132 116.549 182.132 116.458 182.132 116.406C181.533 117.109 180.804 117.904 179.945 118.789C179.111 119.674 178.2 120.508 177.21 121.289C176.247 122.07 175.231 122.721 174.163 123.242C173.096 123.763 172.054 124.023 171.038 124.023C170.778 124.023 170.439 124.01 170.023 123.984C169.632 123.932 169.241 123.841 168.851 123.711C168.46 123.581 168.122 123.398 167.835 123.164C167.549 122.93 167.405 122.617 167.405 122.227C167.405 121.888 167.497 121.367 167.679 120.664C167.861 119.961 168.109 119.18 168.421 118.32C168.734 117.461 169.085 116.589 169.476 115.703C169.866 114.818 170.283 114.01 170.726 113.281C171.168 112.552 171.598 111.953 172.015 111.484C172.458 111.016 172.861 110.781 173.226 110.781C173.59 110.781 173.903 110.859 174.163 111.016C174.424 111.172 174.554 111.432 174.554 111.797C174.554 112.448 174.32 113.099 173.851 113.75C173.382 114.401 172.874 115.104 172.327 115.859C171.78 116.589 171.273 117.383 170.804 118.242C170.335 119.102 170.101 120.078 170.101 121.172C171.82 121.172 173.369 120.82 174.749 120.117C176.129 119.388 177.379 118.49 178.499 117.422C179.619 116.354 180.609 115.195 181.468 113.945C182.327 112.695 183.083 111.536 183.734 110.469C184.411 109.401 184.984 108.516 185.452 107.812C185.947 107.083 186.364 106.719 186.702 106.719C187.197 106.719 187.484 106.875 187.562 107.188C187.666 107.474 187.718 107.839 187.718 108.281C187.484 109.089 187.158 110.039 186.741 111.133C186.325 112.201 185.895 113.333 185.452 114.531C185.036 115.703 184.645 116.875 184.28 118.047C183.942 119.219 183.721 120.286 183.616 121.25C183.616 121.276 183.616 121.315 183.616 121.367C183.642 121.419 183.655 121.458 183.655 121.484C184.124 121.328 184.567 121.055 184.984 120.664C185.4 120.273 185.804 119.883 186.195 119.492C186.611 119.076 187.028 118.711 187.445 118.398C187.861 118.06 188.291 117.891 188.734 117.891C188.76 117.891 188.851 118.073 189.007 118.438C189.189 118.802 189.189 119.245 189.007 119.766C188.773 119.948 188.343 120.26 187.718 120.703C187.119 121.146 186.481 121.615 185.804 122.109C185.127 122.578 184.489 123.047 183.89 123.516C183.291 123.958 182.874 124.297 182.64 124.531C182.275 124.896 181.898 125.417 181.507 126.094C181.116 126.771 180.726 127.526 180.335 128.359C179.945 129.219 179.554 130.117 179.163 131.055C178.799 131.992 178.434 132.904 178.07 133.789C177.705 134.701 177.34 135.534 176.976 136.289C176.637 137.07 176.325 137.708 176.038 138.203C175.908 138.411 175.635 138.815 175.218 139.414C174.827 140.039 174.385 140.703 173.89 141.406C173.421 142.109 172.952 142.773 172.484 143.398C172.041 144.049 171.702 144.505 171.468 144.766C171.364 144.896 171.077 145.195 170.609 145.664C170.14 146.159 169.606 146.693 169.007 147.266C168.434 147.865 167.861 148.451 167.288 149.023C166.689 149.596 166.234 150.026 165.921 150.312C165.609 150.495 165.192 150.716 164.671 150.977C164.15 151.263 163.616 151.497 163.07 151.68C162.497 151.862 161.95 151.979 161.429 152.031C160.882 152.083 160.439 151.966 160.101 151.68C159.762 151.419 159.567 150.964 159.515 150.312C159.437 149.688 159.58 148.789 159.945 147.617C160.283 146.471 160.882 145.013 161.741 143.242C162.601 141.471 163.786 139.323 165.296 136.797ZM177.562 128.398C177.51 128.398 177.418 128.411 177.288 128.438C177.184 128.49 177.106 128.529 177.054 128.555C177.002 128.607 176.885 128.698 176.702 128.828C176.52 128.958 176.312 129.102 176.077 129.258C175.869 129.414 175.661 129.57 175.452 129.727C175.27 129.883 175.14 130 175.062 130.078C174.333 130.599 173.499 131.328 172.562 132.266C171.624 133.229 170.648 134.284 169.632 135.43C168.642 136.602 167.666 137.826 166.702 139.102C165.739 140.404 164.879 141.641 164.124 142.812C163.343 144.01 162.718 145.104 162.249 146.094C161.78 147.083 161.533 147.878 161.507 148.477C161.481 149.076 161.728 149.427 162.249 149.531C162.77 149.635 163.655 149.388 164.905 148.789C165.166 148.555 165.543 148.203 166.038 147.734C166.507 147.292 166.976 146.823 167.445 146.328C167.939 145.859 168.382 145.417 168.773 145C169.163 144.609 169.398 144.362 169.476 144.258C169.606 144.076 169.814 143.789 170.101 143.398C170.387 143.008 170.7 142.565 171.038 142.07C171.377 141.576 171.728 141.055 172.093 140.508C172.458 139.961 172.796 139.427 173.109 138.906C173.447 138.411 173.734 137.969 173.968 137.578C174.228 137.188 174.411 136.888 174.515 136.68C174.749 136.263 175.036 135.664 175.374 134.883C175.739 134.128 176.077 133.333 176.39 132.5C176.702 131.693 176.976 130.911 177.21 130.156C177.445 129.401 177.562 128.815 177.562 128.398ZM191.299 121.211C191.299 120.456 191.442 119.701 191.729 118.945C192.015 118.19 192.354 117.448 192.745 116.719C193.135 115.964 193.526 115.221 193.916 114.492C194.333 113.763 194.646 113.047 194.854 112.344C194.359 112.63 193.929 112.799 193.565 112.852C193.226 112.878 192.81 112.891 192.315 112.891C192.263 112.891 192.093 112.891 191.807 112.891C191.547 112.865 191.377 112.852 191.299 112.852C191.455 112.279 191.742 111.771 192.159 111.328C192.575 110.859 193.044 110.469 193.565 110.156C194.112 109.818 194.672 109.544 195.245 109.336C195.843 109.102 196.377 108.919 196.846 108.789C197.627 107.565 198.265 106.341 198.76 105.117C199.255 103.867 199.75 102.656 200.245 101.484C200.765 100.286 201.364 99.1536 202.041 98.0859C202.745 96.9922 203.682 95.9896 204.854 95.0781L205.049 96.5625L200.166 108.008C200.453 107.93 200.804 107.852 201.221 107.773C201.638 107.695 202.054 107.617 202.471 107.539C202.914 107.461 203.33 107.396 203.721 107.344C204.138 107.266 204.489 107.188 204.776 107.109C204.802 107.109 204.88 107.109 205.01 107.109C205.14 107.083 205.245 107.07 205.323 107.07C205.687 107.07 205.987 107.135 206.221 107.266C206.455 107.396 206.651 107.682 206.807 108.125C205.036 108.646 203.435 109.193 202.002 109.766C200.57 110.339 199.32 111.094 198.252 112.031C197.211 112.943 196.351 114.115 195.674 115.547C195.023 116.953 194.567 118.763 194.307 120.977C194.307 121.445 194.333 121.875 194.385 122.266C194.437 122.656 194.763 122.891 195.362 122.969C195.961 122.969 196.521 122.852 197.041 122.617C197.562 122.383 198.07 122.135 198.565 121.875C199.06 121.589 199.554 121.328 200.049 121.094C200.57 120.859 201.13 120.742 201.729 120.742C201.729 121.367 201.455 121.94 200.909 122.461C200.362 122.982 199.698 123.438 198.916 123.828C198.161 124.219 197.38 124.518 196.573 124.727C195.765 124.935 195.101 125.039 194.58 125.039C194.06 125.039 193.591 124.935 193.174 124.727C192.758 124.518 192.406 124.245 192.12 123.906C191.859 123.542 191.651 123.125 191.495 122.656C191.364 122.188 191.299 121.706 191.299 121.211ZM204.802 122.969C204.36 121.979 204.164 121.016 204.216 120.078C204.268 119.115 204.477 118.216 204.841 117.383C205.232 116.523 205.727 115.755 206.326 115.078C206.951 114.375 207.615 113.776 208.318 113.281C209.021 112.76 209.724 112.37 210.427 112.109C211.157 111.849 211.795 111.745 212.341 111.797C212.888 111.823 213.318 112.018 213.63 112.383C213.943 112.747 214.047 113.307 213.943 114.062C213.943 115.078 213.617 115.964 212.966 116.719C212.341 117.474 211.638 118.151 210.857 118.75C210.102 119.349 209.399 119.896 208.748 120.391C208.123 120.859 207.81 121.302 207.81 121.719C207.81 121.953 207.94 122.135 208.201 122.266C208.487 122.396 208.813 122.5 209.177 122.578C209.542 122.63 209.907 122.669 210.271 122.695C210.636 122.721 210.896 122.747 211.052 122.773C213.5 122.253 215.336 121.94 216.56 121.836C217.784 121.706 218.552 121.719 218.865 121.875C219.177 122.005 219.112 122.227 218.67 122.539C218.253 122.826 217.602 123.138 216.716 123.477C215.831 123.789 214.802 124.076 213.63 124.336C212.459 124.596 211.3 124.753 210.154 124.805C209.008 124.831 207.94 124.714 206.951 124.453C205.987 124.193 205.271 123.698 204.802 122.969ZM211.638 114.062C211.117 114.062 210.623 114.206 210.154 114.492C209.685 114.779 209.255 115.143 208.865 115.586C208.5 116.003 208.188 116.471 207.927 116.992C207.667 117.487 207.472 117.956 207.341 118.398C207.393 118.424 207.433 118.438 207.459 118.438H207.576C207.94 118.438 208.357 118.281 208.826 117.969C209.295 117.656 209.737 117.279 210.154 116.836C210.571 116.367 210.922 115.885 211.209 115.391C211.495 114.896 211.638 114.453 211.638 114.062ZM244.621 122.773C244.621 122.617 244.634 122.37 244.66 122.031C244.686 121.693 244.699 121.497 244.699 121.445C245.22 119.336 245.65 117.526 245.988 116.016C246.353 114.505 246.652 113.229 246.887 112.188C247.121 111.146 247.303 110.312 247.434 109.688C247.564 109.062 247.655 108.581 247.707 108.242C247.759 107.878 247.785 107.63 247.785 107.5C247.811 107.344 247.824 107.227 247.824 107.148C247.824 106.992 247.824 106.719 247.824 106.328C247.85 105.938 247.837 105.547 247.785 105.156C247.733 104.74 247.629 104.388 247.473 104.102C247.342 103.789 247.108 103.633 246.77 103.633C246.431 103.633 246.145 103.75 245.91 103.984C245.702 104.193 245.493 104.414 245.285 104.648C245.077 104.857 244.842 105.039 244.582 105.195C244.348 105.352 244.048 105.365 243.684 105.234C244.048 104.141 244.504 103.359 245.051 102.891C245.624 102.422 246.457 102.188 247.551 102.188C248.202 102.188 248.684 102.318 248.996 102.578C249.335 102.812 249.556 103.138 249.66 103.555C249.79 103.945 249.855 104.401 249.855 104.922C249.855 105.443 249.855 105.977 249.855 106.523C249.855 107.513 249.764 108.49 249.582 109.453C249.426 110.417 249.243 111.38 249.035 112.344C248.827 113.307 248.632 114.271 248.449 115.234C248.293 116.198 248.215 117.174 248.215 118.164C248.215 118.216 248.215 118.346 248.215 118.555C248.241 118.737 248.254 118.854 248.254 118.906L248.762 118.398C250.897 115.352 252.603 112.878 253.879 110.977C255.181 109.076 256.21 107.591 256.965 106.523C257.72 105.43 258.306 104.688 258.723 104.297C259.139 103.906 259.53 103.711 259.895 103.711C260.233 103.711 260.493 103.802 260.676 103.984C260.884 104.167 261.04 104.388 261.145 104.648C261.249 104.909 261.314 105.195 261.34 105.508C261.392 105.794 261.418 106.055 261.418 106.289V118.398H261.926L275.559 97.6562C276.262 96.6146 276.991 95.9375 277.746 95.625C278.501 95.2865 279.465 95.2865 280.637 95.625L276.613 99.6875C274.426 103.047 272.577 105.964 271.066 108.438C269.582 110.885 268.332 112.982 267.316 114.727C266.327 116.445 265.52 117.852 264.895 118.945C264.296 120.013 263.788 120.859 263.371 121.484C262.954 122.083 262.59 122.5 262.277 122.734C261.965 122.943 261.6 123.047 261.184 123.047C260.48 123.047 259.96 122.826 259.621 122.383C259.309 121.94 259.087 121.419 258.957 120.82C258.853 120.195 258.801 119.557 258.801 118.906C258.827 118.255 258.84 117.721 258.84 117.305C258.84 116.367 258.84 115.521 258.84 114.766C258.866 113.984 258.892 113.216 258.918 112.461C258.97 111.706 259.022 110.924 259.074 110.117C259.152 109.284 259.257 108.333 259.387 107.266C257.043 110.833 255.116 113.724 253.605 115.938C252.121 118.151 250.91 119.87 249.973 121.094C249.035 122.318 248.293 123.151 247.746 123.594C247.225 124.01 246.743 124.219 246.301 124.219C245.598 124.219 245.142 124.115 244.934 123.906C244.725 123.672 244.621 123.294 244.621 122.773ZM273.593 121.719C273.593 121.615 273.593 121.406 273.593 121.094C273.619 120.755 273.632 120.534 273.632 120.43C274.465 118.529 275.533 116.771 276.835 115.156C278.137 113.542 279.609 112.109 281.249 110.859C281.301 110.859 281.379 110.846 281.484 110.82C281.614 110.768 281.705 110.742 281.757 110.742C282.46 110.742 283.033 110.898 283.476 111.211C283.945 111.497 284.309 111.888 284.57 112.383C284.856 112.852 285.051 113.385 285.155 113.984C285.26 114.557 285.312 115.117 285.312 115.664C285.312 116.68 285.077 117.747 284.609 118.867C284.14 119.961 283.502 120.977 282.695 121.914C281.913 122.826 281.015 123.581 279.999 124.18C278.984 124.753 277.929 125.039 276.835 125.039C275.741 125.039 274.921 124.753 274.374 124.18C273.853 123.581 273.593 122.76 273.593 121.719ZM276.64 121.25C276.64 121.536 276.757 121.732 276.991 121.836C277.226 121.94 277.46 121.992 277.695 121.992C278.346 121.992 278.971 121.823 279.57 121.484C280.195 121.12 280.741 120.677 281.21 120.156C281.705 119.609 282.096 119.01 282.382 118.359C282.668 117.708 282.812 117.083 282.812 116.484C282.812 116.198 282.786 115.885 282.734 115.547C282.708 115.182 282.629 114.87 282.499 114.609C282.369 114.323 282.161 114.102 281.874 113.945C281.614 113.789 281.236 113.763 280.741 113.867C280.377 113.945 279.96 114.284 279.491 114.883C279.023 115.482 278.567 116.185 278.124 116.992C277.708 117.773 277.356 118.568 277.07 119.375C276.783 120.156 276.64 120.781 276.64 121.25ZM298.151 121.992C298.151 121.211 298.307 120.495 298.62 119.844C298.958 119.167 299.323 118.529 299.713 117.93C300.104 117.331 300.455 116.732 300.768 116.133C301.107 115.534 301.276 114.896 301.276 114.219C301.276 114.062 301.263 113.88 301.237 113.672C301.237 113.438 301.211 113.216 301.159 113.008C301.133 112.799 301.054 112.63 300.924 112.5C300.82 112.344 300.677 112.266 300.495 112.266C300.468 112.266 300.416 112.279 300.338 112.305C300.286 112.305 300.26 112.318 300.26 112.344C299.896 112.839 299.453 113.398 298.932 114.023C298.437 114.622 297.903 115.221 297.33 115.82C296.758 116.419 296.198 116.992 295.651 117.539C295.104 118.086 294.609 118.542 294.166 118.906C293.854 119.193 293.424 119.583 292.877 120.078C292.357 120.573 291.823 121.068 291.276 121.562C290.755 122.031 290.286 122.448 289.87 122.812C289.479 123.177 289.258 123.359 289.205 123.359L287.409 121.836C287.643 121.836 287.877 121.784 288.112 121.68C288.32 121.576 288.528 121.458 288.737 121.328C290.299 120.286 291.705 119.089 292.955 117.734C294.232 116.38 295.482 114.922 296.705 113.359C296.758 113.281 296.888 113.06 297.096 112.695C297.33 112.305 297.578 111.875 297.838 111.406C298.099 110.911 298.359 110.43 298.62 109.961C298.88 109.466 299.075 109.076 299.205 108.789C299.362 108.451 299.453 108.177 299.479 107.969C299.531 107.76 299.57 107.604 299.596 107.5C299.648 107.37 299.726 107.279 299.83 107.227C299.935 107.174 300.156 107.148 300.495 107.148C300.547 107.148 300.664 107.161 300.846 107.188C301.054 107.214 301.185 107.24 301.237 107.266C301.575 107.969 301.875 108.594 302.135 109.141C302.396 109.688 302.617 110.208 302.799 110.703C302.982 111.172 303.112 111.654 303.19 112.148C303.294 112.643 303.346 113.19 303.346 113.789C303.008 114.648 302.63 115.534 302.213 116.445C301.797 117.331 301.445 118.177 301.159 118.984C300.872 119.792 300.69 120.521 300.612 121.172C300.56 121.823 300.703 122.344 301.041 122.734C301.406 123.099 302.005 123.294 302.838 123.32C303.698 123.346 304.909 123.125 306.471 122.656C306.888 122.865 306.927 123.125 306.588 123.438C306.25 123.724 305.729 123.997 305.026 124.258C304.349 124.518 303.593 124.74 302.76 124.922C301.953 125.078 301.276 125.117 300.729 125.039C300.234 125.039 299.817 124.961 299.479 124.805C299.166 124.622 298.906 124.388 298.698 124.102C298.515 123.815 298.372 123.49 298.268 123.125C298.19 122.76 298.151 122.383 298.151 121.992ZM312.943 119.453C312.63 119.87 312.37 120.339 312.162 120.859C311.953 121.38 311.719 121.875 311.459 122.344C311.198 122.812 310.886 123.203 310.521 123.516C310.157 123.828 309.675 123.984 309.076 123.984C308.581 123.984 308.242 123.906 308.06 123.75C307.878 123.568 307.787 123.216 307.787 122.695C307.787 122.07 307.956 121.38 308.295 120.625C308.659 119.87 309.089 119.141 309.584 118.438C310.078 117.708 310.586 117.031 311.107 116.406C311.628 115.781 312.058 115.273 312.396 114.883L319.623 99.2578C319.805 98.8151 320.13 98.3984 320.599 98.0078C321.094 97.6172 321.602 97.4219 322.123 97.4219V98.7109L317.982 108.281V109.219C318.425 109.219 318.841 109.154 319.232 109.023C319.623 108.867 320.013 108.698 320.404 108.516C320.795 108.333 321.198 108.177 321.615 108.047C322.058 107.891 322.539 107.812 323.06 107.812C323.529 108.125 323.776 108.516 323.802 108.984C323.828 109.427 323.711 109.922 323.451 110.469C323.19 110.99 322.826 111.523 322.357 112.07C321.914 112.617 321.446 113.151 320.951 113.672C320.456 114.167 319.974 114.609 319.505 115C319.063 115.391 318.724 115.69 318.49 115.898C318.099 116.211 317.735 116.432 317.396 116.562C317.084 116.667 316.81 116.771 316.576 116.875C316.341 116.979 316.159 117.135 316.029 117.344C315.925 117.552 315.873 117.904 315.873 118.398C315.873 119.128 316.068 119.727 316.459 120.195C316.849 120.638 317.357 120.99 317.982 121.25C318.633 121.51 319.349 121.693 320.13 121.797C320.938 121.875 321.745 121.914 322.552 121.914C323.36 121.914 324.128 121.888 324.857 121.836C325.586 121.758 326.211 121.68 326.732 121.602L327.201 122.07C326.914 122.461 326.472 122.839 325.873 123.203C325.3 123.542 324.662 123.854 323.959 124.141C323.282 124.401 322.604 124.622 321.927 124.805C321.25 124.961 320.69 125.039 320.248 125.039C319.414 125.039 318.607 124.909 317.826 124.648C317.045 124.362 316.328 123.971 315.677 123.477C315.026 122.982 314.453 122.396 313.959 121.719C313.49 121.016 313.151 120.26 312.943 119.453ZM320.638 110.664C320.404 110.664 320.052 110.755 319.584 110.938C319.115 111.12 318.646 111.354 318.177 111.641C317.709 111.927 317.305 112.24 316.966 112.578C316.628 112.917 316.459 113.255 316.459 113.594V113.867C316.641 113.789 316.953 113.659 317.396 113.477C317.865 113.294 318.334 113.073 318.802 112.812C319.297 112.526 319.727 112.201 320.091 111.836C320.456 111.471 320.638 111.081 320.638 110.664Z" fill="white"/>
<path d="M187.005 143L183.45 132.5H185.205L187.305 138.905C187.375 139.095 187.44 139.305 187.5 139.535C187.56 139.755 187.615 139.985 187.665 140.225C187.725 140.455 187.78 140.675 187.83 140.885C187.88 141.095 187.925 141.275 187.965 141.425L187.44 141.41C187.57 140.98 187.685 140.615 187.785 140.315C187.895 140.015 187.99 139.75 188.07 139.52C188.16 139.29 188.24 139.085 188.31 138.905L190.23 134.315H191.715L193.575 138.89C193.685 139.14 193.79 139.405 193.89 139.685C193.99 139.955 194.08 140.225 194.16 140.495C194.25 140.755 194.325 141.015 194.385 141.275L193.92 141.38C193.97 141.15 194.01 140.955 194.04 140.795C194.08 140.625 194.115 140.47 194.145 140.33C194.185 140.18 194.225 140.035 194.265 139.895C194.305 139.755 194.355 139.6 194.415 139.43C194.475 139.26 194.54 139.065 194.61 138.845L196.8 132.5H198.54L194.805 143H193.68L190.8 136.235L190.995 136.295L188.16 143H187.005ZM205.395 143.15C204.495 143.15 203.695 142.98 202.995 142.64C202.295 142.29 201.745 141.815 201.345 141.215C200.955 140.615 200.76 139.925 200.76 139.145C200.76 138.505 200.875 137.93 201.105 137.42C201.335 136.91 201.65 136.47 202.05 136.1C202.46 135.73 202.94 135.445 203.49 135.245C204.04 135.045 204.63 134.945 205.26 134.945C205.83 134.945 206.36 135.04 206.85 135.23C207.35 135.42 207.785 135.685 208.155 136.025C208.525 136.365 208.81 136.77 209.01 137.24C209.22 137.7 209.32 138.21 209.31 138.77L209.295 139.49H202.02L201.675 138.26H207.96L207.735 138.455V138.095C207.695 137.765 207.555 137.47 207.315 137.21C207.075 136.95 206.775 136.745 206.415 136.595C206.055 136.445 205.67 136.37 205.26 136.37C204.66 136.37 204.135 136.465 203.685 136.655C203.245 136.845 202.9 137.14 202.65 137.54C202.41 137.93 202.29 138.43 202.29 139.04C202.29 139.59 202.43 140.065 202.71 140.465C202.99 140.865 203.38 141.175 203.88 141.395C204.38 141.615 204.955 141.725 205.605 141.725C206.165 141.725 206.65 141.645 207.06 141.485C207.47 141.325 207.86 141.105 208.23 140.825L208.965 141.95C208.705 142.17 208.38 142.375 207.99 142.565C207.6 142.745 207.18 142.89 206.73 143C206.29 143.1 205.845 143.15 205.395 143.15ZM217.689 143.15C217.279 143.15 216.879 143.09 216.489 142.97C216.109 142.85 215.764 142.695 215.454 142.505C215.144 142.305 214.884 142.09 214.674 141.86C214.474 141.62 214.344 141.395 214.284 141.185L214.794 141.035V142.955H213.249V131.9H214.794V136.925L214.434 136.85C214.494 136.63 214.619 136.41 214.809 136.19C214.999 135.97 215.244 135.77 215.544 135.59C215.844 135.4 216.179 135.25 216.549 135.14C216.919 135.02 217.304 134.96 217.704 134.96C218.484 134.96 219.179 135.135 219.789 135.485C220.409 135.835 220.899 136.32 221.259 136.94C221.619 137.55 221.799 138.25 221.799 139.04C221.799 139.83 221.619 140.535 221.259 141.155C220.909 141.775 220.424 142.265 219.804 142.625C219.184 142.975 218.479 143.15 217.689 143.15ZM217.494 141.725C218.044 141.725 218.529 141.61 218.949 141.38C219.369 141.14 219.699 140.82 219.939 140.42C220.189 140.01 220.314 139.55 220.314 139.04C220.314 138.53 220.194 138.075 219.954 137.675C219.714 137.265 219.379 136.945 218.949 136.715C218.529 136.485 218.044 136.37 217.494 136.37C216.944 136.37 216.454 136.485 216.024 136.715C215.604 136.945 215.269 137.265 215.019 137.675C214.779 138.075 214.659 138.53 214.659 139.04C214.659 139.55 214.779 140.01 215.019 140.42C215.269 140.82 215.604 141.14 216.024 141.38C216.454 141.61 216.944 141.725 217.494 141.725ZM235.579 143.15C234.929 143.15 234.329 143.075 233.779 142.925C233.239 142.775 232.744 142.55 232.294 142.25C231.854 141.94 231.454 141.56 231.094 141.11L232.174 139.805C232.724 140.495 233.269 140.985 233.809 141.275C234.349 141.555 234.974 141.695 235.684 141.695C236.114 141.695 236.519 141.635 236.899 141.515C237.279 141.395 237.584 141.22 237.814 140.99C238.044 140.76 238.159 140.485 238.159 140.165C238.159 139.955 238.104 139.77 237.994 139.61C237.894 139.45 237.749 139.315 237.559 139.205C237.379 139.085 237.164 138.98 236.914 138.89C236.674 138.8 236.419 138.725 236.149 138.665C235.879 138.595 235.599 138.54 235.309 138.5C234.719 138.4 234.194 138.265 233.734 138.095C233.274 137.925 232.884 137.71 232.564 137.45C232.254 137.19 232.019 136.89 231.859 136.55C231.699 136.2 231.619 135.8 231.619 135.35C231.619 134.91 231.719 134.505 231.919 134.135C232.129 133.765 232.414 133.45 232.774 133.19C233.144 132.92 233.574 132.715 234.064 132.575C234.554 132.425 235.084 132.35 235.654 132.35C236.264 132.35 236.819 132.42 237.319 132.56C237.819 132.7 238.264 132.91 238.654 133.19C239.044 133.46 239.369 133.795 239.629 134.195L238.519 135.35C238.289 135.01 238.024 134.725 237.724 134.495C237.424 134.265 237.094 134.095 236.734 133.985C236.384 133.865 236.009 133.805 235.609 133.805C235.159 133.805 234.759 133.865 234.409 133.985C234.069 134.105 233.799 134.275 233.599 134.495C233.399 134.705 233.299 134.96 233.299 135.26C233.299 135.49 233.354 135.695 233.464 135.875C233.574 136.055 233.734 136.215 233.944 136.355C234.154 136.485 234.424 136.6 234.754 136.7C235.084 136.79 235.459 136.87 235.879 136.94C236.449 137.04 236.974 137.17 237.454 137.33C237.944 137.48 238.364 137.67 238.714 137.9C239.074 138.12 239.349 138.39 239.539 138.71C239.739 139.03 239.839 139.405 239.839 139.835C239.839 140.505 239.664 141.09 239.314 141.59C238.964 142.09 238.469 142.475 237.829 142.745C237.199 143.015 236.449 143.15 235.579 143.15ZM247.49 143.15C246.62 143.15 245.845 142.975 245.165 142.625C244.495 142.265 243.965 141.78 243.575 141.17C243.185 140.55 242.99 139.845 242.99 139.055C242.99 138.265 243.185 137.565 243.575 136.955C243.965 136.335 244.495 135.85 245.165 135.5C245.845 135.14 246.62 134.96 247.49 134.96C248.35 134.96 249.115 135.14 249.785 135.5C250.465 135.85 251 136.335 251.39 136.955C251.78 137.565 251.975 138.265 251.975 139.055C251.975 139.845 251.78 140.55 251.39 141.17C251 141.78 250.465 142.265 249.785 142.625C249.115 142.975 248.35 143.15 247.49 143.15ZM247.49 141.74C248.04 141.74 248.535 141.625 248.975 141.395C249.425 141.155 249.775 140.835 250.025 140.435C250.285 140.025 250.41 139.565 250.4 139.055C250.41 138.535 250.285 138.075 250.025 137.675C249.775 137.265 249.425 136.945 248.975 136.715C248.535 136.485 248.04 136.37 247.49 136.37C246.94 136.37 246.44 136.49 245.99 136.73C245.54 136.96 245.185 137.275 244.925 137.675C244.675 138.075 244.555 138.535 244.565 139.055C244.555 139.565 244.675 140.025 244.925 140.435C245.185 140.835 245.54 141.155 245.99 141.395C246.44 141.625 246.94 141.74 247.49 141.74ZM255.784 143V131.9H257.329V143H255.784ZM264.851 143.15C264.241 143.15 263.706 143.01 263.246 142.73C262.786 142.44 262.426 142.035 262.166 141.515C261.916 140.985 261.791 140.355 261.791 139.625V135.125H263.336V139.145C263.336 139.695 263.416 140.165 263.576 140.555C263.736 140.935 263.976 141.225 264.296 141.425C264.616 141.625 265.011 141.725 265.481 141.725C265.821 141.725 266.136 141.67 266.426 141.56C266.716 141.45 266.966 141.295 267.176 141.095C267.396 140.895 267.566 140.655 267.686 140.375C267.816 140.095 267.881 139.785 267.881 139.445V135.125H269.426V143H267.881V141.35L268.151 141.17C268.031 141.51 267.816 141.835 267.506 142.145C267.196 142.445 266.816 142.69 266.366 142.88C265.916 143.06 265.411 143.15 264.851 143.15ZM275.02 143V132.935H276.565V143H275.02ZM273.025 136.625V135.125H278.875V136.625H273.025ZM282.839 143V135.125H284.384V143H282.839ZM283.589 133.325C283.259 133.325 283.004 133.24 282.824 133.07C282.644 132.9 282.554 132.66 282.554 132.35C282.554 132.06 282.644 131.825 282.824 131.645C283.014 131.465 283.269 131.375 283.589 131.375C283.919 131.375 284.174 131.46 284.354 131.63C284.534 131.8 284.624 132.04 284.624 132.35C284.624 132.64 284.529 132.875 284.339 133.055C284.159 133.235 283.909 133.325 283.589 133.325ZM292.841 143.15C291.971 143.15 291.196 142.975 290.516 142.625C289.846 142.265 289.316 141.78 288.926 141.17C288.536 140.55 288.341 139.845 288.341 139.055C288.341 138.265 288.536 137.565 288.926 136.955C289.316 136.335 289.846 135.85 290.516 135.5C291.196 135.14 291.971 134.96 292.841 134.96C293.701 134.96 294.466 135.14 295.136 135.5C295.816 135.85 296.351 136.335 296.741 136.955C297.131 137.565 297.326 138.265 297.326 139.055C297.326 139.845 297.131 140.55 296.741 141.17C296.351 141.78 295.816 142.265 295.136 142.625C294.466 142.975 293.701 143.15 292.841 143.15ZM292.841 141.74C293.391 141.74 293.886 141.625 294.326 141.395C294.776 141.155 295.126 140.835 295.376 140.435C295.636 140.025 295.761 139.565 295.751 139.055C295.761 138.535 295.636 138.075 295.376 137.675C295.126 137.265 294.776 136.945 294.326 136.715C293.886 136.485 293.391 136.37 292.841 136.37C292.291 136.37 291.791 136.49 291.341 136.73C290.891 136.96 290.536 137.275 290.276 137.675C290.026 138.075 289.906 138.535 289.916 139.055C289.906 139.565 290.026 140.025 290.276 140.435C290.536 140.835 290.891 141.155 291.341 141.395C291.791 141.625 292.291 141.74 292.841 141.74ZM301.181 143V135.125H302.726V136.985L302.336 137.105C302.486 136.745 302.721 136.405 303.041 136.085C303.361 135.755 303.741 135.485 304.181 135.275C304.631 135.065 305.106 134.96 305.606 134.96C306.296 134.96 306.871 135.095 307.331 135.365C307.801 135.625 308.151 136 308.381 136.49C308.611 136.98 308.726 137.57 308.726 138.26V143H307.181V138.425C307.181 137.975 307.096 137.6 306.926 137.3C306.766 136.99 306.531 136.76 306.221 136.61C305.921 136.45 305.566 136.375 305.156 136.385C304.806 136.385 304.481 136.445 304.181 136.565C303.891 136.685 303.636 136.845 303.416 137.045C303.196 137.245 303.026 137.47 302.906 137.72C302.786 137.96 302.726 138.21 302.726 138.47V143H301.961C301.781 143 301.626 143 301.496 143C301.366 143 301.261 143 301.181 143ZM316.131 143.15C315.371 143.15 314.676 143.035 314.046 142.805C313.426 142.575 312.906 142.215 312.486 141.725L313.536 140.795C313.876 141.155 314.261 141.425 314.691 141.605C315.131 141.785 315.616 141.875 316.146 141.875C316.356 141.875 316.566 141.855 316.776 141.815C316.986 141.775 317.176 141.715 317.346 141.635C317.516 141.555 317.651 141.45 317.751 141.32C317.851 141.19 317.901 141.04 317.901 140.87C317.901 140.58 317.731 140.355 317.391 140.195C317.211 140.125 316.991 140.05 316.731 139.97C316.471 139.89 316.166 139.815 315.816 139.745C315.226 139.615 314.716 139.47 314.286 139.31C313.856 139.14 313.511 138.935 313.251 138.695C313.061 138.505 312.916 138.29 312.816 138.05C312.726 137.81 312.681 137.535 312.681 137.225C312.681 136.895 312.761 136.59 312.921 136.31C313.091 136.03 313.326 135.79 313.626 135.59C313.926 135.39 314.276 135.235 314.676 135.125C315.076 135.015 315.506 134.96 315.966 134.96C316.376 134.96 316.791 135.01 317.211 135.11C317.641 135.2 318.041 135.34 318.411 135.53C318.791 135.71 319.106 135.94 319.356 136.22L318.501 137.225C318.271 137.035 318.011 136.865 317.721 136.715C317.441 136.565 317.151 136.45 316.851 136.37C316.551 136.28 316.271 136.235 316.011 136.235C315.791 136.235 315.571 136.255 315.351 136.295C315.131 136.325 314.936 136.38 314.766 136.46C314.606 136.53 314.476 136.625 314.376 136.745C314.276 136.865 314.226 137.01 314.226 137.18C314.226 137.31 314.256 137.43 314.316 137.54C314.386 137.64 314.476 137.73 314.586 137.81C314.756 137.92 314.986 138.02 315.276 138.11C315.566 138.2 315.911 138.285 316.311 138.365C316.831 138.475 317.291 138.605 317.691 138.755C318.101 138.895 318.441 139.07 318.711 139.28C318.941 139.45 319.111 139.655 319.221 139.895C319.341 140.135 319.401 140.41 319.401 140.72C319.401 141.21 319.251 141.64 318.951 142.01C318.661 142.37 318.271 142.65 317.781 142.85C317.291 143.05 316.741 143.15 316.131 143.15ZM323.083 145.835L322.453 145.085C322.853 144.855 323.178 144.605 323.428 144.335C323.688 144.075 323.818 143.845 323.818 143.645C323.818 143.515 323.778 143.4 323.698 143.3C323.618 143.2 323.493 143.08 323.323 142.94C323.123 142.77 322.963 142.62 322.843 142.49C322.733 142.35 322.678 142.18 322.678 141.98C322.678 141.68 322.783 141.455 322.993 141.305C323.203 141.145 323.463 141.065 323.773 141.065C324.053 141.065 324.318 141.15 324.568 141.32C324.818 141.48 325.013 141.7 325.153 141.98C325.303 142.26 325.378 142.58 325.378 142.94C325.378 143.24 325.313 143.535 325.183 143.825C325.063 144.115 324.893 144.385 324.673 144.635C324.463 144.895 324.223 145.125 323.953 145.325C323.683 145.535 323.393 145.705 323.083 145.835ZM329.432 143V132.5H331.052V141.44H336.812V143H329.432ZM340.963 143V132.5H342.583V141.44H348.343V143H340.963ZM356.852 143.15C356.082 143.15 355.367 143.02 354.707 142.76C354.047 142.5 353.467 142.13 352.967 141.65C352.477 141.17 352.097 140.6 351.827 139.94C351.557 139.28 351.422 138.55 351.422 137.75C351.422 136.99 351.567 136.29 351.857 135.65C352.147 135 352.542 134.435 353.042 133.955C353.552 133.465 354.137 133.085 354.797 132.815C355.467 132.545 356.177 132.41 356.927 132.41C357.507 132.41 358.067 132.495 358.607 132.665C359.147 132.825 359.637 133.04 360.077 133.31C360.517 133.58 360.872 133.875 361.142 134.195L360.107 135.425C359.787 135.125 359.457 134.875 359.117 134.675C358.777 134.465 358.417 134.305 358.037 134.195C357.667 134.075 357.277 134.015 356.867 134.015C356.367 134.015 355.887 134.105 355.427 134.285C354.967 134.465 354.562 134.72 354.212 135.05C353.862 135.38 353.582 135.775 353.372 136.235C353.172 136.695 353.072 137.2 353.072 137.75C353.072 138.34 353.172 138.87 353.372 139.34C353.582 139.81 353.867 140.21 354.227 140.54C354.597 140.86 355.022 141.11 355.502 141.29C355.982 141.46 356.502 141.545 357.062 141.545C357.502 141.545 357.912 141.485 358.292 141.365C358.672 141.245 359.017 141.09 359.327 140.9C359.647 140.71 359.937 140.5 360.197 140.27L360.992 141.605C360.742 141.855 360.402 142.1 359.972 142.34C359.542 142.58 359.057 142.775 358.517 142.925C357.977 143.075 357.422 143.15 356.852 143.15ZM365.639 143.165C365.229 143.165 364.919 143.065 364.709 142.865C364.499 142.665 364.394 142.39 364.394 142.04C364.394 141.73 364.499 141.465 364.709 141.245C364.929 141.025 365.239 140.915 365.639 140.915C366.049 140.915 366.359 141.015 366.569 141.215C366.779 141.415 366.884 141.69 366.884 142.04C366.884 142.35 366.774 142.615 366.554 142.835C366.344 143.055 366.039 143.165 365.639 143.165Z" fill="white"/>
</g>
<defs>
<filter id="filter0_d_3_7" x="87.8215" y="96.8215" width="57.357" height="59.357" filterUnits="userSpaceOnUse" color-interpolation-filters="sRGB">
<feFlood flood-opacity="0" result="BackgroundImageFix"/>
<feColorMatrix in="SourceAlpha" type="matrix" values="0 0 0 0 0 0 0 0 0 0 0 0 0 0 0 0 0 0 127 0" result="hardAlpha"/>
<feOffset dy="4"/>
<feGaussianBlur stdDeviation="2"/>
<feComposite in2="hardAlpha" operator="out"/>
<feColorMatrix type="matrix" values="0 0 0 0 0 0 0 0 0 0 0 0 0 0 0 0 0 0 0.25 0"/>
<feBlend mode="normal" in2="BackgroundImageFix" result="effect1_dropShadow_3_7"/>
<feBlend mode="normal" in="SourceGraphic" in2="effect1_dropShadow_3_7" result="shape"/>
</filter>
<clipPath id="clip0_3_7">
<rect width="420" height="250" fill="white"/>
</clipPath>
</defs>
</svg>
